<svg width="16" height="13" viewBox="0 0 16 13" fill="none" xmlns="http://www.w3.org/2000/svg">
<g clip-path="url(#clip0)">
<path d="M15.71 1.79L14.3 0.309997C14.2133 0.210043 14.1056 0.130439 13.9846 0.0768567C13.8636 0.0232743 13.7323 -0.00296859 13.6 -2.77889e-06C13.4678 -0.00228424 13.3367 0.0242672 13.2158 0.0778038C13.0949 0.13134 12.9872 0.210576 12.9 0.309997L6.13001 7.49L3.13001 4.27C2.94265 4.08375 2.68919 3.9792 2.42501 3.9792C2.16082 3.9792 1.90737 4.08375 1.72001 4.27L0.290009 5.75C0.100407 5.95335 -0.00346668 6.22199 8.51677e-06 6.5C-0.00479998 6.63661 0.0184535 6.77277 0.0683327 6.90005C0.118212 7.02732 0.193657 7.14302 0.290009 7.24L4.00001 11.2L5.41001 12.69C5.499 12.787 5.60718 12.8644 5.72768 12.9174C5.84818 12.9704 5.97838 12.9977 6.11001 12.9977C6.24164 12.9977 6.37184 12.9704 6.49234 12.9174C6.61284 12.8644 6.72102 12.787 6.81001 12.69L8.24001 11.2L15.71 3.28C15.8064 3.18302 15.8818 3.06732 15.9317 2.94005C15.9816 2.81277 16.0048 2.67661 16 2.54C16.0035 2.26199 15.8996 1.99335 15.71 1.79V1.79Z" fill="black"/>
</g>
<defs>
<clipPath id="clip0">
<rect width="16" height="13" fill="white"/>
</clipPath>
</defs>
</svg>
